REM DIRINDEX 1\2\4,1\2\5,1\2\6,1\3\7,1\3\8
REM DIRNAME cjc128,folder01,folder02,folder03,folder04,folder05,folder06,folder07
TITLE ""
FILE "029_Lesson 24_Output_Stage.mp3" MP3
  TRACK 01 AUDIO
    TITLE "0:"
    INDEX 01 00:00:00
  TRACK 02 AUDIO
    TITLE "8:cjc128_3589"
    INDEX 01 00:00:09
  TRACK 03 AUDIO
    TITLE "0:"
    INDEX 01 00:03:27
  TRACK 04 AUDIO
    TITLE "8:cjc128_3590"
    INDEX 01 00:03:64
  TRACK 05 AUDIO
    TITLE "0:"
    INDEX 01 00:05:57
  TRACK 06 AUDIO
    TITLE "7:cjc128_3591"
    INDEX 01 00:06:35
  TRACK 07 AUDIO
    TITLE "0:"
    INDEX 01 00:09:16
  TRACK 08 AUDIO
    TITLE "8:cjc128_3592"
    INDEX 01 00:12:24
  TRACK 09 AUDIO
    TITLE "0:"
    INDEX 01 00:14:25
  TRACK 10 AUDIO
    TITLE "7:cjc128_3593"
    INDEX 01 00:14:74
  TRACK 11 AUDIO
    TITLE "0:"
    INDEX 01 00:17:29
  TRACK 12 AUDIO
    TITLE "8:cjc128_3594"
    INDEX 01 00:19:69
  TRACK 13 AUDIO
    TITLE "0:"
    INDEX 01 00:22:03
  TRACK 14 AUDIO
    TITLE "7:cjc128_3595"
    INDEX 01 00:22:58
  TRACK 15 AUDIO
    TITLE "0:"
    INDEX 01 00:26:01
  TRACK 16 AUDIO
    TITLE "8:cjc128_3596"
    INDEX 01 00:29:44
  TRACK 17 AUDIO
    TITLE "0:"
    INDEX 01 00:31:53
  TRACK 18 AUDIO
    TITLE "7:cjc128_3597"
    INDEX 01 00:32:37
  TRACK 19 AUDIO
    TITLE "0:"
    INDEX 01 00:35:37
  TRACK 20 AUDIO
    TITLE "8:cjc128_3598"
    INDEX 01 00:39:02
  TRACK 21 AUDIO
    TITLE "0:"
    INDEX 01 00:41:04
  TRACK 22 AUDIO
    TITLE "7:cjc128_3599"
    INDEX 01 00:41:65
  TRACK 23 AUDIO
    TITLE "0:"
    INDEX 01 00:44:24
  TRACK 24 AUDIO
    TITLE "8:cjc128_3600"
    INDEX 01 00:47:56
  TRACK 25 AUDIO
    TITLE "0:"
    INDEX 01 00:49:70
  TRACK 26 AUDIO
    TITLE "7:cjc128_3601"
    INDEX 01 00:50:64
  TRACK 27 AUDIO
    TITLE "0:"
    INDEX 01 00:54:62
  TRACK 28 AUDIO
    TITLE "8:cjc128_3602"
    INDEX 01 00:59:22
  TRACK 29 AUDIO
    TITLE "0:"
    INDEX 01 01:01:31
  TRACK 30 AUDIO
    TITLE "7:cjc128_3603"
    INDEX 01 01:02:08
  TRACK 31 AUDIO
    TITLE "0:"
    INDEX 01 01:04:50
  TRACK 32 AUDIO
    TITLE "8:cjc128_3604"
    INDEX 01 01:07:25
  TRACK 33 AUDIO
    TITLE "0:"
    INDEX 01 01:09:30
  TRACK 34 AUDIO
    TITLE "7:cjc128_3605"
    INDEX 01 01:09:63
  TRACK 35 AUDIO
    TITLE "0:"
    INDEX 01 01:13:69
  TRACK 36 AUDIO
    TITLE "8:cjc128_3606"
    INDEX 01 01:18:19
  TRACK 37 AUDIO
    TITLE "0:"
    INDEX 01 01:20:20
  TRACK 38 AUDIO
    TITLE "7:cjc128_3607"
    INDEX 01 01:21:00
  TRACK 39 AUDIO
    TITLE "0:"
    INDEX 01 01:23:38
  TRACK 40 AUDIO
    TITLE "8:cjc128_3608"
    INDEX 01 01:26:36
  TRACK 41 AUDIO
    TITLE "0:"
    INDEX 01 01:28:53
  TRACK 42 AUDIO
    TITLE "7:cjc128_3609"
    INDEX 01 01:29:21
  TRACK 43 AUDIO
    TITLE "0:"
    INDEX 01 01:31:38
  TRACK 44 AUDIO
    TITLE "8:cjc128_3610"
    INDEX 01 01:33:70
  TRACK 45 AUDIO
    TITLE "0:"
    INDEX 01 01:35:45
  TRACK 46 AUDIO
    TITLE "7:cjc128_3611"
    INDEX 01 01:36:29
  TRACK 47 AUDIO
    TITLE "0:"
    INDEX 01 01:38:42
  TRACK 48 AUDIO
    TITLE "8:cjc128_3612"
    INDEX 01 01:41:63
  TRACK 49 AUDIO
    TITLE "0:"
    INDEX 01 01:43:64
  TRACK 50 AUDIO
    TITLE "7:cjc128_3613"
    INDEX 01 01:44:40
  TRACK 51 AUDIO
    TITLE "0:"
    INDEX 01 01:47:39
  TRACK 52 AUDIO
    TITLE "8:cjc128_3614"
    INDEX 01 01:51:05
  TRACK 53 AUDIO
    TITLE "0:"
    INDEX 01 01:53:00
  TRACK 54 AUDIO
    TITLE "7:cjc128_3615"
    INDEX 01 01:53:55
  TRACK 55 AUDIO
    TITLE "0:"
    INDEX 01 01:56:57
  TRACK 56 AUDIO
    TITLE "8:cjc128_3616"
    INDEX 01 02:00:10
  TRACK 57 AUDIO
    TITLE "0:"
    INDEX 01 02:02:05
  TRACK 58 AUDIO
    TITLE "7:cjc128_3617"
    INDEX 01 02:02:60
  TRACK 59 AUDIO
    TITLE "0:"
    INDEX 01 02:05:27
  TRACK 60 AUDIO
    TITLE "8:cjc128_3618"
    INDEX 01 02:09:34
  TRACK 61 AUDIO
    TITLE "0:"
    INDEX 01 02:11:25
  TRACK 62 AUDIO
    TITLE "7:cjc128_3619"
    INDEX 01 02:12:09
  TRACK 63 AUDIO
    TITLE "0:"
    INDEX 01 02:14:71
  TRACK 64 AUDIO
    TITLE "8:cjc128_3620"
    INDEX 01 02:18:04
  TRACK 65 AUDIO
    TITLE "0:"
    INDEX 01 02:20:09
  TRACK 66 AUDIO
    TITLE "7:cjc128_3621"
    INDEX 01 02:20:56
  TRACK 67 AUDIO
    TITLE "0:"
    INDEX 01 02:23:74
  TRACK 68 AUDIO
    TITLE "8:cjc128_3622"
    INDEX 01 02:27:62
  TRACK 69 AUDIO
    TITLE "0:"
    INDEX 01 02:29:66
  TRACK 70 AUDIO
    TITLE "7:cjc128_3623"
    INDEX 01 02:30:66
  TRACK 71 AUDIO
    TITLE "0:"
    INDEX 01 02:34:22
  TRACK 72 AUDIO
    TITLE "8:cjc128_3624"
    INDEX 01 02:38:18
  TRACK 73 AUDIO
    TITLE "0:"
    INDEX 01 02:40:11
  TRACK 74 AUDIO
    TITLE "7:cjc128_3625"
    INDEX 01 02:40:68
  TRACK 75 AUDIO
    TITLE "0:"
    INDEX 01 02:45:57
  TRACK 76 AUDIO
    TITLE "8:cjc128_3626"
    INDEX 01 02:51:11
  TRACK 77 AUDIO
    TITLE "0:"
    INDEX 01 02:53:00
  TRACK 78 AUDIO
    TITLE "7:cjc128_3627"
    INDEX 01 02:53:47
  TRACK 79 AUDIO
    TITLE "0:"
    INDEX 01 02:56:28
  TRACK 80 AUDIO
    TITLE "8:cjc128_3628"
    INDEX 01 02:59:24
  TRACK 81 AUDIO
    TITLE "0:"
    INDEX 01 03:01:19
  TRACK 82 AUDIO
    TITLE "7:cjc128_3629"
    INDEX 01 03:01:72
  TRACK 83 AUDIO
    TITLE "0:"
    INDEX 01 03:06:01
  TRACK 84 AUDIO
    TITLE "8:cjc128_3630"
    INDEX 01 03:10:38
  TRACK 85 AUDIO
    TITLE "0:"
    INDEX 01 03:12:11
  TRACK 86 AUDIO
    TITLE "7:cjc128_3631"
    INDEX 01 03:12:66
  TRACK 87 AUDIO
    TITLE "0:"
    INDEX 01 03:15:10
  TRACK 88 AUDIO
    TITLE "8:cjc128_3632"
    INDEX 01 03:17:67
  TRACK 89 AUDIO
    TITLE "0:"
    INDEX 01 03:19:72
  TRACK 90 AUDIO
    TITLE "7:cjc128_3633"
    INDEX 01 03:20:50
  TRACK 91 AUDIO
    TITLE "0:"
    INDEX 01 03:24:26
  TRACK 92 AUDIO
    TITLE "8:cjc128_3634"
    INDEX 01 03:28:38
  TRACK 93 AUDIO
    TITLE "0:"
    INDEX 01 03:30:50
  TRACK 94 AUDIO
    TITLE "7:cjc128_3635"
    INDEX 01 03:31:28
  TRACK 95 AUDIO
    TITLE "0:"
    INDEX 01 03:33:64
